<svg version="1.1" id="Layer_1" xmlns="http://www.w3.org/2000/svg" xmlns:xlink="http://www.w3.org/1999/xlink" x="0px" y="0px"
	 width="100%" viewBox="0 0 512 512" enable-background="new 0 0 512 512" xml:space="preserve">
<path fill="#010101" opacity="1.000000" stroke="none" 
	d="
M411.174896,107.615952 
	C399.279022,117.859596 387.383118,128.103241 375.301392,138.506912 
	C383.997101,147.191528 393.229279,156.097198 402.016479,165.422165 
	C404.064728,167.595764 405.525360,171.151550 405.663239,174.144760 
	C406.115173,183.956863 405.969604,193.805679 405.756653,203.633972 
	C405.686310,206.879761 406.558411,208.544495 409.670929,209.981537 
	C420.338531,214.906754 426.030365,226.583344 423.661285,237.680817 
	C421.129303,249.541519 411.035370,257.919067 399.136871,258.035217 
	C387.341309,258.150330 376.787720,250.076309 374.128632,238.902740 
	C371.270813,226.893967 376.822510,215.164139 388.013428,209.798965 
	C390.157196,208.771210 392.027679,208.158707 391.939362,204.988510 
	C391.684296,195.829346 391.887573,186.658157 391.803650,177.492661 
	C391.792297,176.251801 391.553833,174.636658 390.767548,173.836563 
	C381.214630,164.116211 371.539246,154.516205 361.901337,144.890594 
	C340.716919,156.578079 318.564178,164.305344 294.579742,168.709930 
	C296.280029,170.514633 297.239227,171.928528 298.544281,172.855438 
	C309.198090,180.422241 313.443939,190.579697 311.181671,203.453415 
	C310.564819,206.963577 312.179077,208.570023 315.401306,210.083817 
	C326.846161,215.460693 332.177765,228.351288 328.390869,240.327423 
	C324.883148,251.420822 314.697510,258.473633 302.852783,258.010712 
	C291.545837,257.568787 281.727539,249.080551 279.318512,237.664505 
	C277.019470,226.769394 282.553802,214.996033 292.891266,210.190857 
	C296.388580,208.565231 296.919006,206.623672 297.334595,203.140427 
	C298.359650,194.549301 295.687347,188.105240 288.840942,182.874359 
	C285.297058,180.166718 282.593048,176.379700 279.153564,173.506592 
	C277.580048,172.192200 275.152679,171.288315 273.102417,171.268890 
	C266.449463,171.205795 259.578461,172.802338 253.181732,171.630051 
	C240.920227,169.382965 232.773788,174.086411 224.809555,182.900162 
	C219.318039,188.977432 215.703690,194.469238 216.666428,202.876984 
	C217.082993,206.514893 217.603378,208.589890 221.312607,210.316116 
	C231.431396,215.025223 236.871719,226.683640 234.724869,237.410172 
	C232.477402,248.639420 222.942276,257.234375 211.901459,257.983185 
	C200.307968,258.769501 189.939346,252.200989 185.968689,241.554825 
	C181.972443,230.840042 184.999466,217.822205 195.022614,212.550491 
	C202.749130,208.486710 203.513367,203.296173 202.842026,196.289185 
	C202.683792,194.637772 202.954544,192.944977 202.792587,191.294296 
	C202.403961,187.333908 203.688660,184.222412 206.741638,181.596191 
	C211.110550,177.838058 215.276291,173.843750 219.528763,169.950272 
	C219.259140,169.487000 218.989502,169.023727 218.719879,168.560455 
	C195.197403,164.274475 172.953506,156.374680 151.924530,144.865448 
	C142.445465,154.399841 133.220596,163.554794 124.196350,172.903397 
	C122.993240,174.149750 122.281631,176.365433 122.239517,178.153351 
	C122.039429,186.648254 122.318909,195.155518 122.065659,203.647583 
	C121.966309,206.979431 123.039909,208.527756 126.092117,209.946152 
	C137.833344,215.402481 143.273361,228.333893 139.333054,240.479446 
	C135.734909,251.570312 125.566185,258.520081 113.688156,258.006287 
	C102.582985,257.525909 92.881706,249.215775 90.359482,238.022858 
	C87.910652,227.155624 93.272720,215.246017 103.532120,210.365067 
	C107.132446,208.652237 108.528938,206.895294 108.213409,202.987137 
	C107.852470,198.516464 108.713524,193.902542 108.023262,189.511246 
	C105.707443,174.778427 110.622009,163.537827 122.447716,154.476059 
	C128.683777,149.697510 133.782364,143.434525 138.743835,138.490219 
	C126.276848,127.842216 114.275246,117.591690 101.820335,106.752098 
	C97.424576,99.709999 91.363747,97.750229 82.907173,97.624794 
	C68.143120,97.405807 56.532883,107.566635 56.661419,124.080315 
	C57.160671,188.220993 56.864548,252.367859 56.864460,316.512421 
	C56.864456,318.281219 56.864460,320.049988 56.864460,321.762451 
	C190.620087,321.762451 323.791534,321.762451 457.135559,321.762451 
	C457.135559,317.913788 457.135559,314.424744 457.135529,310.935699 
	C457.134979,245.458267 457.143921,179.980820 457.123627,114.503387 
	C457.120605,104.805092 451.582428,98.322449 442.854095,98.032257 
	C435.864105,97.799850 428.858582,97.887894 421.864899,98.048790 
	C420.631744,98.077164 419.154236,98.900284 418.255432,99.814423 
	C415.931610,102.177795 413.868134,104.797157 411.174896,107.615952 
M226.500015,336.076050 
	C170.060715,336.076050 113.621399,336.076050 57.004307,336.076050 
	C57.004307,344.934875 56.584545,353.266998 57.114956,361.538147 
	C57.721485,370.996277 66.623703,381.405121 81.754395,381.375397 
	C198.583450,381.145782 315.413177,381.249023 432.242676,381.247620 
	C433.242493,381.247620 434.243347,381.252991 435.241974,381.212311 
	C445.606476,380.790283 454.847321,374.160828 456.279327,363.954803 
	C457.549255,354.904022 456.545654,345.534241 456.545654,336.076050 
	C380.121735,336.076050 303.810883,336.076050 226.500015,336.076050 
M278.666718,42.705547 
	C268.508881,38.081070 257.966309,36.923954 246.995148,38.957672 
	C218.104691,44.313087 198.994263,73.126801 205.176758,102.112762 
	C211.334167,130.980942 240.739975,149.464523 269.286499,142.410172 
	C291.443756,136.934723 307.525940,118.451286 309.841217,95.800224 
	C312.056183,74.130974 300.017914,53.287186 278.666718,42.705547 
M278.298157,156.764236 
	C327.137482,150.937576 368.914062,130.720322 403.491119,95.620461 
	C406.959473,92.099670 407.137421,89.957420 403.576263,86.318871 
	C375.372711,57.502377 341.669922,38.457905 302.492706,29.256224 
	C292.540710,26.918764 282.291443,25.847075 272.178802,24.193783 
	C306.356018,37.840847 324.093628,60.409889 323.974213,91.345406 
	C323.856201,121.921936 305.589417,144.747559 271.232239,156.847626 
	C273.593353,156.847626 275.507751,156.847626 278.298157,156.764236 
M175.006180,140.535202 
	C200.798660,151.018448 232.800110,158.728409 238.064606,155.678680 
	C206.298950,143.233215 188.057709,120.660904 190.453873,85.906601 
	C192.650742,54.042641 211.932892,34.575642 242.138916,25.215584 
	C239.505661,25.215584 237.021896,24.954268 234.607834,25.254154 
	C185.981262,31.294777 144.413727,51.630257 110.055267,86.679634 
	C106.839516,89.960045 106.973816,92.039917 110.114037,95.260605 
	C128.691986,114.314522 150.029129,129.348282 175.006180,140.535202 
M278.500061,395.243561 
	C255.794327,395.243561 233.088593,395.243561 211.934189,395.243561 
	C208.274857,415.505402 204.814911,434.663147 201.375275,453.708496 
	C238.160965,453.708496 275.883667,453.708496 313.491547,453.708496 
	C310.998199,444.133057 308.062744,434.784210 306.214478,425.225128 
	C304.334106,415.500031 303.524719,405.567841 302.183685,395.243591 
	C294.734985,395.243591 287.117493,395.243591 278.500061,395.243561 
M325.500031,467.876434 
	C270.716217,467.876801 215.932388,467.862335 161.148605,467.895447 
	C153.903610,467.899811 148.998245,472.489624 149.031265,478.938049 
	C149.063461,485.227722 153.854492,489.956726 160.735291,489.962555 
	C224.843933,490.017029 288.952637,490.016327 353.061310,489.969116 
	C360.172516,489.963867 365.115753,485.041656 364.942566,478.601379 
	C364.774231,472.341248 359.964111,467.957062 352.975983,467.896301 
	C344.151276,467.819519 335.325409,467.876923 325.500031,467.876434 
M199.068741,228.784454 
	C197.618835,233.482147 198.472290,237.649597 202.117691,241.035233 
	C205.286179,243.977921 209.052185,244.798767 213.175262,243.492279 
	C218.008408,241.960770 221.083542,237.630081 221.049377,232.614227 
	C221.014038,227.425583 217.619904,223.120438 212.505753,221.777420 
	C207.134674,220.366898 203.010712,222.339859 199.068741,228.784454 
M311.097809,241.787521 
	C315.825378,236.908249 316.823700,232.456757 314.295349,227.529861 
	C312.086700,223.225967 307.389069,220.714523 302.778839,221.463425 
	C297.889648,222.257629 294.569397,225.079788 293.306244,229.821732 
	C292.100464,234.348099 293.349731,238.459793 297.054443,241.425156 
	C301.240570,244.775909 305.800293,245.009995 311.097809,241.787521 
M113.010551,243.892776 
	C120.525864,244.147873 125.059868,241.058121 126.285423,234.846451 
	C127.350677,229.447296 124.331444,223.972412 119.242416,222.075134 
	C113.506615,219.936722 107.276093,222.621719 104.813316,228.293259 
	C102.112839,234.512222 104.949913,240.411713 113.010551,243.892776 
M394.652832,243.228836 
	C399.553101,245.055740 403.840668,243.960312 407.263519,240.150024 
	C410.267487,236.806091 410.939758,232.823746 409.276581,228.583389 
	C407.508972,224.076859 403.075775,221.136154 398.439178,221.297607 
	C393.521332,221.468887 389.192474,224.903275 387.900818,229.658508 
	C386.416077,235.124573 388.217621,239.110764 394.652832,243.228836 
z"/>
<path fill="#38A7D1" opacity="1.000000" stroke="none" 
	d="
M102.273643,107.341171 
	C114.275246,117.591690 126.276848,127.842216 138.743835,138.490219 
	C133.782364,143.434525 128.683777,149.697510 122.447716,154.476059 
	C110.622009,163.537827 105.707443,174.778427 108.023262,189.511246 
	C108.713524,193.902542 107.852470,198.516464 108.213409,202.987137 
	C108.528938,206.895294 107.132446,208.652237 103.532120,210.365067 
	C93.272720,215.246017 87.910652,227.155624 90.359482,238.022858 
	C92.881706,249.215775 102.582985,257.525909 113.688156,258.006287 
	C125.566185,258.520081 135.734909,251.570312 139.333054,240.479446 
	C143.273361,228.333893 137.833344,215.402481 126.092117,209.946152 
	C123.039909,208.527756 121.966309,206.979431 122.065659,203.647583 
	C122.318909,195.155518 122.039429,186.648254 122.239517,178.153351 
	C122.281631,176.365433 122.993240,174.149750 124.196350,172.903397 
	C133.220596,163.554794 142.445465,154.399841 151.924530,144.865448 
	C172.953506,156.374680 195.197403,164.274475 218.719879,168.560455 
	C218.989502,169.023727 219.259140,169.487000 219.528763,169.950272 
	C215.276291,173.843750 211.110550,177.838058 206.741638,181.596191 
	C203.688660,184.222412 202.403961,187.333908 202.792587,191.294296 
	C202.954544,192.944977 202.683792,194.637772 202.842026,196.289185 
	C203.513367,203.296173 202.749130,208.486710 195.022614,212.550491 
	C184.999466,217.822205 181.972443,230.840042 185.968689,241.554825 
	C189.939346,252.200989 200.307968,258.769501 211.901459,257.983185 
	C222.942276,257.234375 232.477402,248.639420 234.724869,237.410172 
	C236.871719,226.683640 231.431396,215.025223 221.312607,210.316116 
	C217.603378,208.589890 217.082993,206.514893 216.666428,202.876984 
	C215.703690,194.469238 219.318039,188.977432 224.809555,182.900162 
	C232.773788,174.086411 240.920227,169.382965 253.181732,171.630051 
	C259.578461,172.802338 266.449463,171.205795 273.102417,171.268890 
	C275.152679,171.288315 277.580048,172.192200 279.153564,173.506592 
	C282.593048,176.379700 285.297058,180.166718 288.840942,182.874359 
	C295.687347,188.105240 298.359650,194.549301 297.334595,203.140427 
	C296.919006,206.623672 296.388580,208.565231 292.891266,210.190857 
	C282.553802,214.996033 277.019470,226.769394 279.318512,237.664505 
	C281.727539,249.080551 291.545837,257.568787 302.852783,258.010712 
	C314.697510,258.473633 324.883148,251.420822 328.390869,240.327423 
	C332.177765,228.351288 326.846161,215.460693 315.401306,210.083817 
	C312.179077,208.570023 310.564819,206.963577 311.181671,203.453415 
	C313.443939,190.579697 309.198090,180.422241 298.544281,172.855438 
	C297.239227,171.928528 296.280029,170.514633 294.579742,168.709930 
	C318.564178,164.305344 340.716919,156.578079 361.901337,144.890594 
	C371.539246,154.516205 381.214630,164.116211 390.767548,173.836563 
	C391.553833,174.636658 391.792297,176.251801 391.803650,177.492661 
	C391.887573,186.658157 391.684296,195.829346 391.939362,204.988510 
	C392.027679,208.158707 390.157196,208.771210 388.013428,209.798965 
	C376.822510,215.164139 371.270813,226.893967 374.128632,238.902740 
	C376.787720,250.076309 387.341309,258.150330 399.136871,258.035217 
	C411.035370,257.919067 421.129303,249.541519 423.661285,237.680817 
	C426.030365,226.583344 420.338531,214.906754 409.670929,209.981537 
	C406.558411,208.544495 405.686310,206.879761 405.756653,203.633972 
	C405.969604,193.805679 406.115173,183.956863 405.663239,174.144760 
	C405.525360,171.151550 404.064728,167.595764 402.016479,165.422165 
	C393.229279,156.097198 383.997101,147.191528 375.301392,138.506912 
	C387.383118,128.103241 399.279022,117.859596 411.802429,107.708054 
	C421.249054,107.895920 430.067963,108.006569 438.887177,108.082626 
	C445.742218,108.141747 446.979828,109.351219 446.980530,116.286385 
	C446.987000,179.752457 446.986450,243.218536 446.972717,306.684601 
	C446.972382,308.288635 446.797455,309.892609 446.703613,311.502502 
	C319.944794,311.502502 193.637787,311.502502 67.234230,311.502502 
	C67.145439,309.915283 67.024467,308.760437 67.024300,307.605591 
	C67.015541,245.971878 67.003128,184.338150 67.031548,122.704437 
	C67.036049,112.933380 71.987595,108.243713 81.951050,108.064026 
	C88.727386,107.941803 95.499588,107.590195 102.273643,107.341171 
z"/>
<path fill="#E3E7EA" opacity="1.000000" stroke="none" 
	d="
M227.000031,336.076050 
	C303.810883,336.076050 380.121735,336.076050 456.545654,336.076050 
	C456.545654,345.534241 457.549255,354.904022 456.279327,363.954803 
	C454.847321,374.160828 445.606476,380.790283 435.241974,381.212311 
	C434.243347,381.252991 433.242493,381.247620 432.242676,381.247620 
	C315.413177,381.249023 198.583450,381.145782 81.754395,381.375397 
	C66.623703,381.405121 57.721485,370.996277 57.114956,361.538147 
	C56.584545,353.266998 57.004307,344.934875 57.004307,336.076050 
	C113.621399,336.076050 170.060715,336.076050 227.000031,336.076050 
M250.527191,365.828461 
	C258.001831,365.826385 265.479706,365.955658 272.949951,365.773407 
	C277.499298,365.662445 280.398041,362.671234 280.203369,358.623901 
	C279.993256,354.255951 277.490753,351.904449 273.173981,351.867920 
	C262.378357,351.776550 251.580856,351.773438 240.785324,351.869690 
	C236.462341,351.908234 233.900482,354.284454 233.813873,358.654541 
	C233.726410,363.068359 236.425186,365.349274 240.576965,365.746338 
	C243.540466,366.029755 246.551224,365.818817 250.527191,365.828461 
z"/>
<path fill="#CAD0D7" opacity="1.000000" stroke="none" 
	d="
M102.046989,107.046631 
	C95.499588,107.590195 88.727386,107.941803 81.951050,108.064026 
	C71.987595,108.243713 67.036049,112.933380 67.031548,122.704437 
	C67.003128,184.338150 67.015541,245.971878 67.024300,307.605591 
	C67.024467,308.760437 67.145439,309.915283 67.234230,311.502502 
	C193.637787,311.502502 319.944794,311.502502 446.703613,311.502502 
	C446.797455,309.892609 446.972382,308.288635 446.972717,306.684601 
	C446.986450,243.218536 446.987000,179.752457 446.980530,116.286385 
	C446.979828,109.351219 445.742218,108.141747 438.887177,108.082626 
	C430.067963,108.006569 421.249054,107.895920 412.065369,107.557228 
	C413.868134,104.797157 415.931610,102.177795 418.255432,99.814423 
	C419.154236,98.900284 420.631744,98.077164 421.864899,98.048790 
	C428.858582,97.887894 435.864105,97.799850 442.854095,98.032257 
	C451.582428,98.322449 457.120605,104.805092 457.123627,114.503387 
	C457.143921,179.980820 457.134979,245.458267 457.135529,310.935699 
	C457.135559,314.424744 457.135559,317.913788 457.135559,321.762451 
	C323.791534,321.762451 190.620087,321.762451 56.864460,321.762451 
	C56.864460,320.049988 56.864456,318.281219 56.864460,316.512421 
	C56.864548,252.367859 57.160671,188.220993 56.661419,124.080315 
	C56.532883,107.566635 68.143120,97.405807 82.907173,97.624794 
	C91.363747,97.750229 97.424576,99.709999 102.046989,107.046631 
z"/>
<path fill="#626B76" opacity="1.000000" stroke="none" 
	d="
M279.010986,42.860229 
	C300.017914,53.287186 312.056183,74.130974 309.841217,95.800224 
	C307.525940,118.451286 291.443756,136.934723 269.286499,142.410172 
	C240.739975,149.464523 211.334167,130.980942 205.176758,102.112762 
	C198.994263,73.126801 218.104691,44.313087 246.995148,38.957672 
	C257.966309,36.923954 268.508881,38.081070 279.010986,42.860229 
M231.606491,119.922485 
	C238.420898,125.671959 246.178909,129.005539 255.178909,129.337906 
	C260.176880,129.522491 263.440765,127.362320 263.929901,123.276260 
	C264.410675,119.259933 261.684357,116.298317 256.730499,115.455559 
	C240.583435,112.708603 235.152634,107.294502 232.509491,91.308853 
	C231.678757,86.284584 228.848343,83.619011 224.776199,84.025955 
	C220.479919,84.455299 218.192902,87.934769 218.550995,93.145363 
	C219.268097,103.579498 223.487503,112.305397 231.606491,119.922485 
M273.126923,62.340401 
	C264.734528,61.523098 259.062317,70.027428 263.020752,77.481735 
	C265.136871,81.466660 269.806274,83.577881 273.956146,82.485168 
	C278.585144,81.266289 281.478424,78.333191 281.982605,73.469780 
	C282.524078,68.246567 279.822968,64.718323 273.126923,62.340401 
z"/>
<path fill="#A3D2FD" opacity="1.000000" stroke="none" 
	d="
M277.860168,156.805939 
	C275.507751,156.847626 273.593353,156.847626 271.232239,156.847626 
	C305.589417,144.747559 323.856201,121.921936 323.974213,91.345406 
	C324.093628,60.409889 306.356018,37.840847 272.178802,24.193783 
	C282.291443,25.847075 292.540710,26.918764 302.492706,29.256224 
	C341.669922,38.457905 375.372711,57.502377 403.576263,86.318871 
	C407.137421,89.957420 406.959473,92.099670 403.491119,95.620461 
	C368.914062,130.720322 327.137482,150.937576 277.860168,156.805939 
z"/>
<path fill="#A3D2FD" opacity="1.000000" stroke="none" 
	d="
M174.668335,140.359100 
	C150.029129,129.348282 128.691986,114.314522 110.114037,95.260605 
	C106.973816,92.039917 106.839516,89.960045 110.055267,86.679634 
	C144.413727,51.630257 185.981262,31.294777 234.607834,25.254154 
	C237.021896,24.954268 239.505661,25.215584 242.138916,25.215584 
	C211.932892,34.575642 192.650742,54.042641 190.453873,85.906601 
	C188.057709,120.660904 206.298950,143.233215 238.064606,155.678680 
	C232.800110,158.728409 200.798660,151.018448 174.668335,140.359100 
z"/>
<path fill="#C8CED5" opacity="1.000000" stroke="none" 
	d="
M279.000061,395.243591 
	C287.117493,395.243591 294.734985,395.243591 302.183685,395.243591 
	C303.524719,405.567841 304.334106,415.500031 306.214478,425.225128 
	C308.062744,434.784210 310.998199,444.133057 313.491547,453.708496 
	C275.883667,453.708496 238.160965,453.708496 201.375275,453.708496 
	C204.814911,434.663147 208.274857,415.505402 211.934189,395.243561 
	C233.088593,395.243561 255.794327,395.243561 279.000061,395.243591 
z"/>
<path fill="#E4E8EB" opacity="1.000000" stroke="none" 
	d="
M326.000061,467.876434 
	C335.325409,467.876923 344.151276,467.819519 352.975983,467.896301 
	C359.964111,467.957062 364.774231,472.341248 364.942566,478.601379 
	C365.115753,485.041656 360.172516,489.963867 353.061310,489.969116 
	C288.952637,490.016327 224.843933,490.017029 160.735291,489.962555 
	C153.854492,489.956726 149.063461,485.227722 149.031265,478.938049 
	C148.998245,472.489624 153.903610,467.899811 161.148605,467.895447 
	C215.932388,467.862335 270.716217,467.876801 326.000061,467.876434 
z"/>
<path fill="#64CFEC" opacity="1.000000" stroke="none" 
	d="
M199.205368,228.429810 
	C203.010712,222.339859 207.134674,220.366898 212.505753,221.777420 
	C217.619904,223.120438 221.014038,227.425583 221.049377,232.614227 
	C221.083542,237.630081 218.008408,241.960770 213.175262,243.492279 
	C209.052185,244.798767 205.286179,243.977921 202.117691,241.035233 
	C198.472290,237.649597 197.618835,233.482147 199.205368,228.429810 
z"/>
<path fill="#64CFEB" opacity="1.000000" stroke="none" 
	d="
M310.766541,241.985138 
	C305.800293,245.009995 301.240570,244.775909 297.054443,241.425156 
	C293.349731,238.459793 292.100464,234.348099 293.306244,229.821732 
	C294.569397,225.079788 297.889648,222.257629 302.778839,221.463425 
	C307.389069,220.714523 312.086700,223.225967 314.295349,227.529861 
	C316.823700,232.456757 315.825378,236.908249 310.766541,241.985138 
z"/>
<path fill="#64CFEB" opacity="1.000000" stroke="none" 
	d="
M112.619080,243.801743 
	C104.949913,240.411713 102.112839,234.512222 104.813316,228.293259 
	C107.276093,222.621719 113.506615,219.936722 119.242416,222.075134 
	C124.331444,223.972412 127.350677,229.447296 126.285423,234.846451 
	C125.059868,241.058121 120.525864,244.147873 112.619080,243.801743 
z"/>
<path fill="#64CFEC" opacity="1.000000" stroke="none" 
	d="
M394.283630,243.096710 
	C388.217621,239.110764 386.416077,235.124573 387.900818,229.658508 
	C389.192474,224.903275 393.521332,221.468887 398.439178,221.297607 
	C403.075775,221.136154 407.508972,224.076859 409.276581,228.583389 
	C410.939758,232.823746 410.267487,236.806091 407.263519,240.150024 
	C403.840668,243.960312 399.553101,245.055740 394.283630,243.096710 
z"/>
<path fill="#050505" opacity="1.000000" stroke="none" 
	d="
M250.034042,365.828491 
	C246.551224,365.818817 243.540466,366.029755 240.576965,365.746338 
	C236.425186,365.349274 233.726410,363.068359 233.813873,358.654541 
	C233.900482,354.284454 236.462341,351.908234 240.785324,351.869690 
	C251.580856,351.773438 262.378357,351.776550 273.173981,351.867920 
	C277.490753,351.904449 279.993256,354.255951 280.203369,358.623901 
	C280.398041,362.671234 277.499298,365.662445 272.949951,365.773407 
	C265.479706,365.955658 258.001831,365.826385 250.034042,365.828491 
z"/>
<path fill="#020203" opacity="1.000000" stroke="none" 
	d="
M231.343292,119.683273 
	C223.487503,112.305397 219.268097,103.579498 218.550995,93.145363 
	C218.192902,87.934769 220.479919,84.455299 224.776199,84.025955 
	C228.848343,83.619011 231.678757,86.284584 232.509491,91.308853 
	C235.152634,107.294502 240.583435,112.708603 256.730499,115.455559 
	C261.684357,116.298317 264.410675,119.259933 263.929901,123.276260 
	C263.440765,127.362320 260.176880,129.522491 255.178909,129.337906 
	C246.178909,129.005539 238.420898,125.671959 231.343292,119.683273 
z"/>
<path fill="#020303" opacity="1.000000" stroke="none" 
	d="
M273.496277,62.438782 
	C279.822968,64.718323 282.524078,68.246567 281.982605,73.469780 
	C281.478424,78.333191 278.585144,81.266289 273.956146,82.485168 
	C269.806274,83.577881 265.136871,81.466660 263.020752,77.481735 
	C259.062317,70.027428 264.734528,61.523098 273.496277,62.438782 
z"/>
</svg>